<?xml version="1.0" encoding="utf-8" standalone="no"?>
<!DOCTYPE svg PUBLIC "-//W3C//DTD SVG 1.1//EN"
  "http://www.w3.org/Graphics/SVG/1.1/DTD/svg11.dtd">
<!-- Created with matplotlib (http://matplotlib.org/) -->
<svg height="144pt" version="1.1" viewBox="0 0 1440 144" width="1440pt" xmlns="http://www.w3.org/2000/svg" xmlns:xlink="http://www.w3.org/1999/xlink">
 <defs>
  <style type="text/css">
*{stroke-linecap:butt;stroke-linejoin:round;stroke-miterlimit:100000;}
  </style>
 </defs>
 <g id="figure_1">
  <g id="patch_1">
   <path d="M 0 144 
L 1440 144 
L 1440 0 
L 0 0 
z
" style="fill:#ffffff;"/>
  </g>
  <g id="axes_1">
   <g id="patch_2">
    <path d="M 35.95 120.2 
L 1413.45 120.2 
L 1413.45 15.3 
L 35.95 15.3 
z
" style="fill:#ffffff;"/>
   </g>
   <g id="line2d_1">
    <path clip-path="url(#p3ae1ceb8d0)" d="M 35.95 113.744006 
L 36.280607 113.664791 
L 36.390809 113.625184 
L 36.418359 113.644988 
L 37.713235 113.545969 
L 37.795887 113.545969 
L 37.823437 113.585577 
L 38.043842 113.625184 
L 38.154044 113.644988 
L 38.319347 113.644988 
L 40.909099 113.744006 
L 41.019301 113.744006 
L 41.597863 113.843024 
L 41.708065 113.803417 
L 43.002941 113.724202 
L 43.140694 113.684595 
L 43.361098 113.724202 
L 44.848828 113.644988 
L 44.986581 113.60538 
L 45.151884 113.625184 
L 45.344738 113.585577 
L 45.510041 113.585577 
L 45.675345 113.565773 
L 45.923299 113.625184 
L 46.887569 113.526166 
L 47.025322 113.506362 
L 47.93449 113.407344 
L 48.044692 113.367736 
L 48.072242 113.38754 
L 52.673184 113.308325 
L 52.838488 113.248914 
L 53.554802 113.149896 
L 53.747656 113.110289 
L 53.912959 113.130093 
L 54.105813 113.110289 
L 57.46698 113.011271 
L 57.687385 112.971663 
L 57.880239 112.991467 
L 58.045542 112.991467 
L 58.238396 113.011271 
L 58.376149 113.011271 
L 58.486351 113.070682 
L 58.513901 113.031074 
L 58.706755 113.050878 
L 61.764866 113.130093 
L 61.875069 113.1697 
L 61.902619 113.149896 
L 62.563832 113.248914 
L 62.701585 113.248914 
L 62.894439 113.229111 
L 63.087293 113.248914 
L 63.197495 113.209307 
L 63.225046 113.229111 
L 63.44545 113.189503 
L 68.487201 113.288522 
L 68.652504 113.288522 
L 71.132054 113.367736 
L 71.159604 113.407344 
L 71.242256 113.347933 
L 72.399379 113.248914 
L 72.592233 113.209307 
L 72.840188 113.288522 
L 73.005491 113.288522 
L 73.666704 113.189503 
L 73.914659 113.110289 
L 74.079963 113.1697 
L 75.374838 113.070682 
L 75.595243 113.031074 
L 77.386029 113.130093 
L 77.551332 113.149896 
L 77.771736 113.110289 
L 77.909489 113.189503 
L 77.93704 113.1697 
L 80.44414 113.070682 
L 80.664544 113.011271 
L 80.774746 112.971663 
L 80.9676 112.95186 
L 82.152274 112.852841 
L 82.317577 112.852841 
L 82.813487 112.753823 
L 82.978791 112.753823 
L 84.521621 112.852841 
L 84.631824 112.833038 
L 84.769576 112.79343 
L 85.596093 112.714216 
L 85.733846 112.694412 
L 85.899149 112.694412 
L 86.092003 112.714216 
L 87.800137 112.813234 
L 87.96544 112.813234 
L 88.185845 112.773627 
L 88.323597 112.773627 
L 88.571552 112.674608 
L 88.681755 112.753823 
L 88.709305 112.714216 
L 95.734696 112.813234 
L 95.9551 112.852841 
L 100.225436 112.753823 
L 100.500941 112.654805 
L 100.748896 112.734019 
L 100.94175 112.714216 
L 103.531502 112.813234 
L 103.641704 112.79343 
L 103.834558 112.773627 
L 104.550872 112.872645 
L 104.743726 112.892449 
L 112.402779 112.991467 
L 112.568082 113.031074 
L 112.678285 113.011271 
L 113.008891 113.130093 
L 117.058822 113.209307 
L 117.196575 113.268718 
L 117.389429 113.229111 
L 117.609833 113.288522 
L 117.802687 113.248914 
L 117.912889 113.308325 
L 117.94044 113.268718 
L 120.419989 113.347933 
L 120.502641 113.367736 
L 120.530192 113.328129 
L 121.522011 113.427147 
L 121.714865 113.466755 
L 121.880169 113.427147 
L 122.017921 113.466755 
L 122.679135 113.545969 
L 122.816887 113.585577 
L 122.92709 113.585577 
L 133.534052 113.664791 
L 133.671804 113.724202 
L 133.919759 113.664791 
L 134.195265 113.744006 
L 134.525872 113.644988 
L 134.663624 113.664791 
L 136.977871 113.565773 
L 137.143174 113.565773 
L 138.768656 113.466755 
L 138.906409 113.486558 
L 141.385959 113.585577 
L 141.578813 113.625184 
L 141.799217 113.585577 
L 143.149194 113.684595 
L 143.314497 113.684595 
L 143.534902 113.625184 
L 143.700205 113.625184 
L 143.865508 113.60538 
L 144.030812 113.60538 
L 151.827618 113.704399 
L 152.020471 113.744006 
L 152.185775 113.744006 
L 154.031662 113.644988 
L 154.196965 113.644988 
L 154.47247 113.724202 
L 154.665324 113.625184 
L 154.858178 113.644988 
L 156.621413 113.565773 
L 156.786717 113.506362 
L 162.076423 113.407344 
L 162.241726 113.407344 
L 168.743656 113.506362 
L 168.853858 113.486558 
L 168.991611 113.486558 
L 169.184465 113.506362 
L 169.652824 113.427147 
L 169.680375 113.38754 
L 169.735476 113.446951 
L 169.92833 113.466755 
L 170.093633 113.446951 
L 170.231386 113.486558 
L 170.369138 113.407344 
L 170.396689 113.427147 
L 173.509901 113.328129 
L 173.730306 113.288522 
L 173.95071 113.328129 
L 174.171114 113.288522 
L 174.584373 113.38754 
L 174.722125 113.367736 
L 179.185315 113.268718 
L 179.350618 113.268718 
L 180.342438 113.367736 
L 180.645494 113.466755 
L 180.893449 113.407344 
L 181.113853 113.446951 
L 181.334258 113.407344 
L 181.499561 113.427147 
L 181.664864 113.407344 
L 181.802617 113.407344 
L 181.94037 113.407344 
L 182.078123 113.407344 
L 182.270976 113.38754 
L 182.46383 113.407344 
L 183.235246 113.308325 
L 183.372998 113.328129 
L 183.45565 113.347933 
L 183.483201 113.328129 
L 185.96275 113.427147 
L 186.183155 113.466755 
L 186.320907 113.466755 
L 186.486211 113.486558 
L 186.679065 113.466755 
L 187.670884 113.565773 
L 187.781087 113.565773 
L 187.918839 113.506362 
L 188.139244 113.565773 
L 188.276997 113.585577 
L 189.489221 113.486558 
L 189.599423 113.526166 
L 191.831018 113.427147 
L 191.96877 113.427147 
L 192.189175 113.466755 
L 201.170654 113.367736 
L 201.308407 113.38754 
L 207.286877 113.486558 
L 207.479731 113.506362 
L 210.758246 113.585577 
L 210.868448 113.585577 
L 211.061302 113.545969 
L 211.171504 113.506362 
L 214.835728 113.60538 
L 215.056132 113.644988 
L 215.304087 113.585577 
L 215.524491 113.625184 
L 216.047952 113.704399 
L 216.185705 113.724202 
L 216.902019 113.625184 
L 216.984671 113.60538 
L 217.012221 113.625184 
L 217.205075 113.644988 
L 219.161164 113.565773 
L 219.271366 113.506362 
L 219.298917 113.526166 
L 219.491771 113.545969 
L 225.745746 113.446951 
L 225.9386 113.407344 
L 226.076353 113.38754 
L 226.875319 113.288522 
L 227.013071 113.288522 
L 227.150824 113.268718 
L 228.115093 113.1697 
L 228.252846 113.1697 
L 228.418149 113.209307 
L 228.555902 113.1697 
L 233.404799 113.268718 
L 233.570102 113.268718 
L 235.719045 113.189503 
L 235.856798 113.149896 
L 239.135314 113.070682 
L 239.245516 113.070682 
L 242.386279 113.1697 
L 242.524031 113.149896 
L 242.689335 113.130093 
L 242.96484 113.209307 
L 243.102593 113.1697 
L 243.846458 113.248914 
L 243.95666 113.248914 
L 244.177065 113.209307 
L 245.96785 113.110289 
L 246.078053 113.110289 
L 246.215805 113.189503 
L 246.243356 113.1697 
L 246.46376 113.110289 
L 246.711715 113.1697 
L 246.93212 113.110289 
L 247.042322 113.130093 
L 247.180075 113.110289 
L 247.317827 113.149896 
L 247.565782 113.070682 
L 247.675985 113.050878 
L 247.813737 113.050878 
L 247.979041 113.070682 
L 248.061692 113.110289 
L 248.226996 113.110289 
L 248.364748 113.070682 
L 248.392299 113.110289 
L 251.147354 113.209307 
L 251.395309 113.268718 
L 256.244206 113.1697 
L 256.43706 113.130093 
L 256.685015 113.189503 
L 256.850318 113.189503 
L 258.145194 113.090485 
L 258.310497 113.090485 
L 258.44825 113.070682 
L 259.302317 112.991467 
L 259.44007 112.932056 
L 262.222675 113.031074 
L 262.387979 113.031074 
L 265.721595 112.932056 
L 265.886899 112.932056 
L 269.275617 112.833038 
L 269.413369 112.833038 
L 269.578673 112.852841 
L 269.771526 112.833038 
L 273.986761 112.773627 
L 274.124513 112.734019 
L 274.262266 112.714216 
L 274.372468 112.753823 
L 275.309187 112.654805 
L 275.419389 112.694412 
L 285.282487 112.595394 
L 285.44779 112.595394 
L 285.585543 112.595394 
L 285.778397 112.57559 
L 287.403879 112.674608 
L 287.514081 112.654805 
L 287.706935 112.635001 
L 287.872238 112.654805 
L 287.982441 112.595394 
L 288.009991 112.615197 
L 290.902799 112.714216 
L 291.040552 112.694412 
L 292.666034 112.615197 
L 292.748686 112.595394 
L 292.776237 112.615197 
L 299.112863 112.714216 
L 299.278167 112.714216 
L 299.526122 112.654805 
L 299.691425 112.674608 
L 299.856728 112.674608 
L 301.840368 112.57559 
L 302.005671 112.57559 
L 302.143424 112.57559 
L 302.281177 112.555786 
L 302.47403 112.535983 
L 302.666884 112.555786 
L 309.719825 112.456768 
L 309.912679 112.436964 
L 311.45551 112.337946 
L 311.565712 112.318142 
L 311.593263 112.35775 
L 318.315597 112.456768 
L 318.45335 112.436964 
L 322.558382 112.337946 
L 322.668584 112.35775 
L 322.778787 112.337946 
L 322.916539 112.337946 
L 323.192045 112.417161 
L 324.238966 112.516179 
L 324.376719 112.516179 
L 324.542022 112.496375 
L 324.762426 112.555786 
L 324.845078 112.516179 
L 324.872628 112.535983 
L 325.065482 112.555786 
L 325.258336 112.516179 
L 325.396089 112.516179 
L 325.478741 112.496375 
L 325.506291 112.516179 
L 325.726696 112.555786 
L 328.261346 112.456768 
L 328.42665 112.456768 
L 332.256176 112.35775 
L 332.476581 112.278535 
L 332.614333 112.318142 
L 332.807187 112.298339 
L 333.000041 112.318142 
L 333.606153 108.020748 
L 334.239816 105.743326 
L 334.515321 104.891769 
L 337.490781 95.999924 
L 338.124443 92.791731 
L 338.289747 90.435095 
L 338.372398 78.592505 
L 338.620353 15.3 
L 338.647904 15.874306 
L 338.785657 30.509213 
L 339.364218 103.881782 
L 339.639724 111.98148 
L 339.94278 115.031244 
L 340.218285 116.001624 
L 340.383589 116.219464 
L 340.576443 116.4175 
L 341.210105 116.358089 
L 341.402959 116.19966 
L 341.568262 116.100642 
L 344.295767 112.021087 
L 344.653924 111.308156 
L 345.618193 109.743666 
L 345.866148 109.347593 
L 346.582463 108.13957 
L 347.105923 107.268208 
L 347.574282 106.436455 
L 347.904889 105.822541 
L 348.483451 104.832358 
L 348.979361 103.941193 
L 349.282417 103.386691 
L 350.081383 102.079649 
L 350.356888 101.584557 
L 350.43954 101.485539 
L 350.797697 100.812214 
L 351.128304 100.198301 
L 351.817067 99.049689 
L 352.147674 98.435775 
L 352.257876 98.257542 
L 353.194595 96.475212 
L 353.277247 96.336587 
L 354.737426 91.801548 
L 355.040482 89.464716 
L 355.095583 87.959638 
L 355.178235 74.829809 
L 355.42619 16.666453 
L 355.45374 17.141741 
L 355.563942 26.54848 
L 356.280257 104.57491 
L 356.555762 110.634831 
L 356.803717 112.714216 
L 357.051672 113.506362 
L 357.354728 113.823221 
L 357.520031 113.76381 
L 357.96084 113.684595 
L 358.181245 113.427147 
L 358.208795 113.446951 
L 358.263896 113.367736 
L 358.704705 112.932056 
L 359.641424 111.76364 
L 359.806727 111.525996 
L 366.115803 102.277685 
L 366.556612 101.584557 
L 367.906589 99.465565 
L 368.209645 98.891259 
L 368.347398 98.693223 
L 368.815757 97.940683 
L 369.366768 96.990108 
L 369.724925 96.296979 
L 369.94533 95.801888 
L 370.386139 94.613668 
L 370.826948 93.405645 
L 371.240206 92.257032 
L 371.681015 89.940004 
L 371.818767 88.118067 
L 371.901419 79.800529 
L 372.176925 17.359581 
L 372.232026 18.92407 
L 372.397329 37.103832 
L 372.920789 98.851652 
L 373.196295 108.159373 
L 373.499351 111.506192 
L 373.802407 112.714216 
L 374.133014 113.011271 
L 374.546272 112.932056 
L 374.739126 112.833038 
L 374.904429 112.753823 
L 375.069732 112.654805 
L 375.152384 112.635001 
L 375.45544 112.377553 
L 375.758496 112.040891 
L 376.116653 111.684425 
L 376.199305 111.625014 
L 376.529912 111.16953 
L 377.907439 109.347593 
L 378.017641 109.248575 
L 378.403349 108.674268 
L 380.331888 106.079989 
L 380.497191 105.842345 
L 380.96555 105.089806 
L 383.417549 101.406324 
L 383.775707 100.713196 
L 384.244066 99.960657 
L 384.905279 98.831848 
L 387.412379 93.168001 
L 388.900109 88.573551 
L 389.065412 86.89024 
L 389.148064 79.48367 
L 389.423569 17.755654 
L 389.506221 20.508363 
L 389.726626 47.282915 
L 390.167434 96.653445 
L 390.44294 106.555277 
L 390.773546 110.872475 
L 391.159254 112.456768 
L 391.627614 112.95186 
L 392.123523 112.852841 
L 392.95004 112.139909 
L 393.721455 111.209137 
L 393.996961 110.892279 
L 394.43777 110.179347 
L 394.685725 109.882292 
L 400.96725 100.693392 
L 401.160104 100.376534 
L 402.482531 98.297149 
L 402.785587 97.76245 
L 403.309047 96.851482 
L 403.832508 95.683066 
L 404.714125 93.524467 
L 405.402889 91.207438 
L 405.843698 88.217085 
L 405.92635 85.543591 
L 406.036552 62.333698 
L 406.256956 17.874476 
L 406.312057 19.260732 
L 406.477361 36.153257 
L 407.028372 98.653615 
L 407.303877 107.347423 
L 407.579383 110.634831 
L 407.882439 111.882462 
L 408.130394 112.060695 
L 408.92936 111.98148 
L 409.370168 111.525996 
L 409.507921 111.446781 
L 409.94873 110.95169 
L 409.976281 110.971493 
L 410.003831 110.912082 
L 410.279337 110.555616 
L 410.582393 110.218954 
L 418.516951 98.633812 
L 418.820007 98.099113 
L 419.45367 97.009911 
L 419.784277 96.395998 
L 421.299557 92.890749 
L 422.346478 88.771588 
L 422.45668 87.32592 
L 422.539332 80.572871 
L 422.842388 18.527997 
L 422.92504 22.409515 
L 423.172994 53.600283 
L 423.558702 95.841495 
L 423.861758 107.030564 
L 424.137264 110.753653 
L 424.44032 112.19932 
L 424.798477 112.714216 
L 424.96378 112.79343 
L 425.073982 112.79343 
L 425.349488 112.714216 
L 425.514791 112.654805 
L 425.624993 112.615197 
L 425.872948 112.417161 
L 425.9556 112.35775 
L 426.120903 112.258731 
L 426.423959 111.98148 
L 426.534162 111.902265 
L 432.126924 103.703549 
L 432.347328 103.386691 
L 437.030922 96.475212 
L 437.44418 95.623655 
L 437.637034 95.366207 
L 438.077843 94.554257 
L 438.546202 93.524467 
L 438.821707 92.95016 
L 439.234966 91.801548 
L 439.565572 90.692543 
L 440.309437 87.088276 
L 440.392089 84.850463 
L 440.47474 72.057297 
L 440.750246 19.201322 
L 440.832898 23.181858 
L 441.080853 53.540872 
L 441.46656 95.524637 
L 441.769616 106.852332 
L 442.072672 110.852671 
L 442.348178 112.060695 
L 442.871638 112.654805 
L 443.395099 112.555786 
L 443.780807 112.179517 
L 444.524671 111.525996 
L 444.855278 111.050708 
L 444.910379 110.991297 
L 445.185885 110.654635 
L 453.423499 98.653615 
L 453.643904 98.336757 
L 454.360218 97.128733 
L 454.608173 96.73266 
L 455.048982 95.92071 
L 455.517341 95.148367 
L 455.765296 94.851312 
L 456.095903 94.217595 
L 456.371408 93.643289 
L 456.757116 92.633302 
L 457.142824 91.5441 
L 458.024441 87.464546 
L 458.107093 85.503983 
L 458.189745 73.938645 
L 458.46525 18.963678 
L 458.492801 19.537984 
L 458.630554 30.707249 
L 459.319317 102.119256 
L 459.622373 108.95152 
L 459.92543 111.308156 
L 460.200935 112.080498 
L 460.917249 112.496375 
L 461.055002 112.516179 
L 461.220305 112.417161 
L 462.349878 111.506192 
L 462.625384 111.16953 
L 463.424349 110.179347 
L 463.507001 110.080328 
L 463.754956 109.783274 
L 466.675315 105.76313 
L 466.923269 105.505682 
L 467.143674 105.16902 
L 467.281427 104.95118 
L 467.667134 104.35707 
L 467.804887 104.159033 
L 468.163044 103.644138 
L 469.320167 101.802398 
L 469.678325 101.287502 
L 469.871178 101.049858 
L 470.229336 100.534963 
L 470.339538 100.336927 
L 472.626234 96.891089 
L 472.92929 96.336587 
L 473.397649 95.504833 
L 473.673154 94.910723 
L 474.003761 94.257202 
L 474.747626 92.435265 
L 475.133334 91.247045 
L 475.519041 89.840985 
L 475.904749 87.424939 
L 476.014951 85.444572 
L 476.097603 75.740778 
L 476.373108 18.92407 
L 476.42821 20.072683 
L 476.593513 35.479932 
L 477.199625 99.425958 
L 477.502681 107.604871 
L 477.805737 110.298169 
L 478.136344 111.110119 
L 478.46695 111.565603 
L 478.604703 111.684425 
L 478.632254 111.664621 
L 478.770006 111.644818 
L 478.907759 111.625014 
L 479.293467 111.5458 
L 479.651624 111.209137 
L 480.478141 110.516009 
L 480.753646 110.179347 
L 481.029152 109.862488 
L 481.44241 109.446611 
L 481.635264 109.228771 
L 481.800567 108.971323 
L 481.828118 109.010931 
L 487.779037 100.277516 
L 488.054542 99.940853 
L 488.219845 99.723013 
L 488.4678 99.346743 
L 488.825958 98.831848 
L 489.046362 98.554597 
L 489.349418 98.019898 
L 489.45962 97.841665 
L 489.900429 97.148537 
L 490.892249 95.564244 
L 491.112653 95.267189 
L 491.718765 94.197791 
L 491.856518 93.999755 
L 492.517731 92.336247 
L 493.509551 88.395318 
L 493.674854 86.791221 
L 493.757506 82.493827 
L 493.895259 47.36213 
L 494.088113 19.438965 
L 494.170764 23.261072 
L 494.418719 52.075401 
L 494.831978 95.584048 
L 495.107483 105.525486 
L 495.410539 109.644648 
L 495.686045 110.991297 
L 495.96155 111.506192 
L 496.209505 111.60521 
L 496.319707 111.565603 
L 496.95337 111.466585 
L 497.146224 111.347763 
L 497.339078 111.248745 
L 497.807437 110.79326 
L 498.96456 109.307986 
L 499.047212 109.228771 
L 501.884919 105.307646 
L 501.96757 105.208628 
L 504.584873 101.267699 
L 504.777727 101.030055 
L 505.824647 99.346743 
L 506.45831 98.237738 
L 507.97359 95.900906 
L 508.193995 95.584048 
L 508.772556 94.574061 
L 509.020511 94.29681 
L 509.158264 94.118577 
L 509.43377 93.663092 
L 510.067432 92.593695 
L 511.197005 89.029035 
L 511.47251 87.385331 
L 511.610263 85.900057 
L 511.692915 81.384822 
L 511.830668 46.589787 
L 512.023521 19.260732 
L 512.106173 22.864999 
L 512.354128 51.837757 
L 512.767386 95.584048 
L 513.070442 106.218614 
L 513.345948 109.565433 
L 513.676555 110.991297 
L 514.062262 111.565603 
L 514.282667 111.625014 
L 514.530622 111.565603 
L 514.640824 111.5458 
L 514.806127 111.446781 
L 516.018351 110.476402 
L 516.211205 110.298169 
L 516.569362 109.941703 
L 516.899969 109.466415 
L 517.065272 109.228771 
L 517.97444 108.099962 
L 518.057092 108.000944 
L 518.277497 107.723693 
L 519.324417 106.377044 
L 519.351968 106.396847 
L 519.379519 106.337436 
L 521.556012 103.386691 
L 521.886619 103.030225 
L 523.264146 100.871625 
L 523.760056 100.039872 
L 523.980461 99.76262 
L 524.255966 99.267529 
L 524.311067 99.188314 
L 525.633494 97.10893 
L 525.908999 96.653445 
L 526.156954 96.376194 
L 528.278347 93.484859 
L 528.333448 93.445252 
L 528.664054 92.831338 
L 528.994661 92.177818 
L 530.509941 88.652766 
L 530.923199 87.147687 
L 531.253806 84.692033 
L 531.336458 79.246026 
L 531.639514 20.151897 
L 531.749716 24.033415 
L 531.997671 52.867548 
L 532.410929 95.603851 
L 532.686435 105.426468 
L 532.989491 109.426808 
L 533.320097 111.030904 
L 533.705805 111.625014 
L 533.788457 111.625014 
L 533.816007 111.664621 
L 534.008861 111.684425 
L 534.44967 111.60521 
L 534.642524 111.506192 
L 534.752726 111.407174 
L 535.772096 110.57542 
L 536.102703 110.119936 
L 536.488411 109.743666 
L 536.736366 109.466415 
L 537.122073 109.070342 
L 538.94041 106.614688 
L 539.023061 106.535473 
L 545.001531 98.118916 
L 545.359688 97.742647 
L 545.828048 96.910893 
L 546.048452 96.613838 
L 546.241306 96.376194 
L 546.874968 95.267189 
L 547.205575 94.613668 
L 547.701485 93.524467 
L 548.059642 92.851142 
L 548.390249 92.217425 
L 548.665754 91.662922 
L 548.94126 91.068813 
L 549.767776 88.395318 
L 549.988181 86.830829 
L 550.098383 84.632622 
L 550.181035 73.839626 
L 550.45654 19.478573 
L 550.484091 19.73602 
L 550.594293 26.687106 
L 551.475911 105.16902 
L 551.778967 109.506022 
L 552.082023 111.090315 
L 552.44018 111.98148 
L 552.633034 112.080498 
L 553.211595 112.021087 
L 553.404449 111.862658 
L 553.514651 111.823051 
L 553.92791 111.407174 
L 554.423819 110.872475 
L 554.726876 110.555616 
L 555.057482 110.100132 
L 555.250336 109.862488 
L 555.553392 109.446611 
L 555.746246 109.189164 
L 556.021751 108.832698 
L 556.131954 108.753483 
L 556.517661 108.179177 
L 556.627864 108.099962 
L 557.45438 107.089975 
L 557.674784 106.832528 
L 557.977841 106.436455 
L 558.198245 106.159203 
L 563.846108 98.217935 
L 563.95631 98.118916 
L 564.837928 96.673249 
L 565.44404 95.603851 
L 565.636894 95.346404 
L 566.490961 93.940344 
L 566.821567 93.306626 
L 567.041972 92.811535 
L 568.529702 88.236889 
L 568.915409 85.088106 
L 568.998061 79.562885 
L 569.301117 19.656806 
L 569.411319 23.716557 
L 569.659274 53.164603 
L 570.072532 95.940513 
L 570.375589 106.119596 
L 570.678645 109.664452 
L 570.981701 110.95169 
L 571.257206 111.327959 
L 571.97352 111.248745 
L 572.193925 111.090315 
L 572.414329 110.991297 
L 572.992891 110.456598 
L 573.736756 109.54563 
L 573.846958 109.466415 
L 575.307137 107.54546 
L 575.47244 107.307816 
L 576.106103 106.57508 
L 576.188755 106.515669 
L 576.546912 105.98097 
L 576.767316 105.703719 
L 577.235676 104.95118 
L 577.566282 104.594714 
L 577.869338 104.060015 
L 577.95199 103.960997 
L 578.282597 103.505513 
L 579.797877 101.505343 
L 580.073382 101.188484 
L 580.403989 100.733 
L 581.753966 98.633812 
L 582.001921 98.257542 
L 585.611043 92.890749 
L 586.024301 92.019388 
L 586.162054 91.821352 
L 586.630414 90.811365 
L 586.93347 90.197451 
L 587.842638 87.979441 
L 588.255896 86.137701 
L 588.421199 84.771248 
L 588.503851 81.998735 
L 588.614053 61.561355 
L 588.862008 20.092486 
L 588.94466 23.617538 
L 589.165064 47.916632 
L 589.633424 96.73266 
L 589.93648 106.258222 
L 590.239536 109.882292 
L 590.570142 111.189334 
L 590.900749 111.664621 
L 591.038502 111.76364 
L 591.258906 111.823051 
L 591.396659 111.823051 
L 591.506861 111.842854 
L 591.534412 111.803247 
L 591.727266 111.704229 
L 592.44358 111.090315 
L 592.719085 110.753653 
L 595.584343 106.812724 
L 595.859848 106.515669 
L 596.080253 106.099792 
L 598.752656 102.436115 
L 599.000611 102.13906 
L 601.039352 99.029885 
L 601.369958 98.574401 
L 601.480161 98.495186 
L 601.865868 97.802058 
L 602.086273 97.405985 
L 602.44443 97.049519 
L 602.692385 96.653445 
L 603.574002 95.207778 
L 604.290317 93.92054 
L 604.538272 93.405645 
L 604.896429 92.712517 
L 605.364788 91.860959 
L 606.797417 88.553747 
L 607.238226 86.216915 
L 607.348428 84.573211 
L 607.43108 77.404285 
L 607.734136 20.151897 
L 607.789237 21.498546 
L 607.95454 36.212668 
L 608.560652 98.594204 
L 608.863708 107.16919 
L 609.166764 110.258561 
L 609.46982 111.60521 
L 609.827978 112.139909 
L 610.131034 112.258731 
L 611.536112 111.16953 
L 611.728966 110.931886 
L 611.839168 110.832868 
L 612.527932 110.020918 
L 612.610583 109.941703 
L 612.913639 109.525826 
L 612.996291 109.446611 
L 613.354448 109.090145 
L 613.381999 109.109949 
L 613.409549 109.050538 
L 615.310537 106.495866 
L 615.530942 106.218614 
L 615.97175 105.525486 
L 616.081953 105.426468 
L 618.341098 102.3569 
L 618.533952 102.099453 
L 618.837008 101.683576 
L 619.195165 101.307306 
L 619.553322 100.772607 
L 619.856378 100.435945 
L 623.382849 95.187974 
L 623.823657 94.494846 
L 624.319567 93.603681 
L 625.201185 91.959977 
L 625.586893 91.227242 
L 626.358308 89.32609 
L 626.744016 87.563564 
L 626.909319 85.979271 
L 626.991971 81.147178 
L 627.157274 38.98518 
L 627.322577 20.092486 
L 627.405229 23.538324 
L 627.625634 48.411724 
L 628.066442 95.584048 
L 628.369498 106.159203 
L 628.672554 109.644648 
L 628.94806 110.852671 
L 629.388869 111.5458 
L 629.829678 111.743836 
L 630.187835 111.664621 
L 630.380689 111.5458 
L 630.573542 111.466585 
L 630.738846 111.308156 
L 630.9317 111.228941 
L 631.234756 110.832868 
L 631.510261 110.516009 
L 631.785767 110.139739 
L 631.895969 110.060525 
L 633.411249 108.040551 
L 633.493901 107.941533 
L 635.036732 105.901756 
L 635.367338 105.54529 
L 636.827518 103.624335 
L 636.96527 103.426298 
L 637.323427 102.911403 
L 637.516281 102.653955 
L 637.819337 102.257882 
L 639.279517 100.336927 
L 639.555022 100.039872 
L 639.995831 99.32694 
L 640.188685 99.089296 
L 640.409089 98.831848 
L 640.491741 98.752634 
L 642.117223 96.237568 
L 642.44783 95.762281 
L 642.585583 95.54444 
L 643.522301 94.039362 
L 643.880459 93.32643 
L 643.96311 93.187804 
L 644.376369 92.316443 
L 644.541672 92.078799 
L 644.899829 91.405475 
L 645.423289 89.880593 
L 645.671244 89.345894 
L 646.360008 87.048669 
L 646.607963 85.167321 
L 646.690615 81.721484 
L 646.800817 58.986879 
L 647.021221 20.270719 
L 647.048772 20.429149 
L 647.158974 26.766321 
L 647.46203 64.531905 
L 647.820187 96.792071 
L 648.123243 106.159203 
L 648.45385 109.822881 
L 648.729356 110.931886 
L 649.363018 111.724032 
L 649.528322 111.644818 
L 650.024231 111.5458 
L 650.106883 111.525996 
L 650.134434 111.565603 
L 650.327288 111.466585 
L 650.547692 111.426978 
L 650.685445 111.327959 
L 651.897669 110.337776 
L 652.228276 109.862488 
L 652.503781 109.54563 
L 653.771106 107.882122 
L 653.853758 107.783104 
L 655.065982 106.218614 
L 655.369038 105.881952 
L 656.250656 104.792751 
L 656.388409 104.594714 
L 656.691465 104.159033 
L 656.801667 104.060015 
L 657.903689 102.653955 
L 658.151644 102.3569 
L 658.4547 101.960827 
L 659.363868 100.832018 
L 659.47407 100.733 
L 661.45771 98.059505 
L 661.595463 97.861469 
L 661.843418 97.445592 
L 662.008721 97.207948 
L 662.394429 96.475212 
L 662.890339 95.663262 
L 663.220945 95.3266 
L 663.689305 94.574061 
L 664.212765 93.643289 
L 665.893349 89.761771 
L 666.527012 87.167491 
L 666.774966 84.5138 
L 666.857618 77.523107 
L 667.160674 19.557787 
L 667.243326 22.251086 
L 667.43618 42.629054 
L 667.93209 96.594034 
L 668.235146 106.57508 
L 668.538202 110.080328 
L 668.841258 111.367567 
L 669.226966 111.961676 
L 669.419819 112.001284 
L 669.695325 111.902265 
L 669.805527 111.882462 
L 671.43101 110.615027 
L 671.734066 110.218954 
L 672.092223 109.862488 
L 672.202425 109.783274 
L 672.753436 109.16936 
L 672.836088 109.090145 
L 673.497301 108.317803 
L 673.607503 108.218784 
L 674.406469 107.248405 
L 674.626874 106.971153 
L 675.9493 105.248235 
L 676.197255 104.95118 
L 677.988041 102.554937 
L 678.346198 102.178667 
L 679.723725 100.376534 
L 679.889029 100.13889 
L 683.415499 94.890919 
L 686.225656 88.593355 
L 686.611363 86.553577 
L 686.721565 84.573211 
L 686.804217 75.819992 
L 687.107273 20.231112 
L 687.134824 20.825222 
L 687.272576 31.162734 
L 688.016441 102.475722 
L 688.319497 108.614857 
L 688.595003 110.674438 
L 688.898059 111.506192 
L 689.118463 111.704229 
L 689.146014 111.684425 
L 689.256216 111.704229 
L 689.393969 111.684425 
L 690.495991 110.773457 
L 690.799047 110.496205 
L 690.9368 110.397187 
L 691.542912 109.842685 
L 691.790867 109.525826 
L 691.92862 109.466415 
L 692.204125 109.129753 
L 693.388799 107.604871 
L 693.664304 107.288012 
L 695.868348 104.297659 
L 696.033652 104.079819 
L 696.419359 103.505513 
L 698.816257 100.237908 
L 698.898909 100.158694 
L 699.312167 99.505173 
L 699.532572 99.247725 
L 699.863178 98.772437 
L 700.083583 98.51499 
L 700.579493 97.683236 
L 700.717245 97.465396 
L 702.177425 95.227582 
L 702.42538 94.73249 
L 703.169244 93.385841 
L 703.692705 92.455069 
L 704.353918 90.89058 
L 704.656974 90.276666 
L 705.097783 89.068643 
L 705.345738 88.692373 
L 705.483491 88.355711 
L 705.924299 85.999075 
L 706.006951 84.236549 
L 706.089603 74.255503 
L 706.392659 20.171701 
L 706.420209 20.845025 
L 706.557962 31.400378 
L 707.274276 101.129073 
L 707.577333 108.000944 
L 707.852838 110.337776 
L 708.155894 111.347763 
L 708.45895 111.76364 
L 708.95486 112.021087 
L 709.120163 112.021087 
L 709.505871 111.922069 
L 709.781377 111.704229 
L 710.662994 110.971493 
L 710.883399 110.753653 
L 711.103803 110.496205 
L 711.379309 110.139739 
L 711.517061 110.040721 
L 711.847668 109.704059 
L 712.068072 109.466415 
L 712.233376 109.228771 
L 714.244566 106.515669 
L 714.46497 106.238418 
L 717.385329 102.218274 
L 717.633284 101.92122 
L 717.991441 101.406324 
L 718.074092 101.32711 
L 718.294497 101.069662 
L 718.377149 100.990447 
L 721.765866 96.296979 
L 721.93117 96.059335 
L 722.316877 95.485029 
L 723.529102 93.564074 
L 723.94236 92.692713 
L 724.355618 91.92037 
L 725.540292 89.10825 
L 726.311707 86.573381 
L 726.504561 84.870266 
L 726.587213 81.503644 
L 726.697415 58.808646 
L 726.917819 19.775628 
L 726.94537 19.835039 
L 727.028022 23.637342 
L 727.248426 48.01565 
L 727.689235 94.851312 
L 727.992291 105.644308 
L 728.295347 109.704059 
L 728.653504 111.347763 
L 729.011661 111.882462 
L 729.204515 111.98148 
L 729.45247 112.060695 
L 729.727976 111.961676 
L 729.893279 111.961676 
L 731.518761 110.674438 
L 736.367658 103.861978 
L 736.45031 103.782764 
L 736.891119 103.089636 
L 737.44213 102.475722 
L 737.662534 102.198471 
L 738.902309 100.594374 
L 739.012511 100.51516 
L 742.180825 95.782084 
L 742.483881 95.247385 
L 742.842038 94.73249 
L 742.979791 94.534453 
L 744.081813 92.415462 
L 744.384869 91.841155 
L 744.96343 90.157844 
L 745.128734 89.563734 
L 745.734846 86.137701 
L 745.817497 83.127544 
L 745.9277 61.42273 
L 746.148104 20.151897 
L 746.175655 20.092486 
L 746.258306 23.89479 
L 746.506261 51.837757 
L 746.94707 96.851482 
L 747.250126 106.57508 
L 747.553182 110.139739 
L 747.773586 111.228941 
L 748.021541 111.625014 
L 748.379699 111.783443 
L 748.517451 111.743836 
L 748.572552 111.783443 
L 748.627654 111.743836 
L 749.068462 111.644818 
L 749.564372 111.189334 
L 749.839878 110.852671 
L 750.47354 110.278365 
L 750.721495 109.98131 
L 750.96945 109.684255 
L 751.327608 109.16936 
L 751.520461 108.911912 
L 756.782617 101.525146 
L 757.195875 101.109269 
L 757.498931 100.713196 
L 757.664234 100.495356 
L 757.994841 100.020068 
L 758.105043 99.841835 
L 758.408099 99.425958 
L 758.683605 99.109099 
L 758.93156 98.713026 
L 762.072322 94.019558 
L 762.595783 93.128393 
L 762.733536 92.910553 
L 762.981491 92.395658 
L 764.359018 88.098263 
L 764.634524 86.751614 
L 764.799827 84.454389 
L 764.882479 75.938814 
L 765.185535 20.191505 
L 765.240636 21.934227 
L 765.43349 40.193204 
L 765.984501 96.9505 
L 766.287557 106.000774 
L 766.590613 109.506022 
L 766.893669 110.912082 
L 767.086523 111.248745 
L 767.389579 111.525996 
L 767.499781 111.5458 
L 767.637534 111.585407 
L 767.96814 111.486389 
L 768.133444 111.367567 
L 768.353848 111.268548 
L 768.629354 111.050708 
L 768.849758 110.79326 
L 769.097713 110.496205 
L 769.400769 110.159543 
L 769.814027 109.506022 
L 769.95178 109.307986 
L 770.309937 108.79309 
L 772.321127 106.079989 
L 772.596633 105.76313 
L 772.872138 105.406664 
L 772.95479 105.347253 
L 773.312947 104.812554 
L 773.560902 104.515499 
L 773.863958 104.119426 
L 774.883329 102.812384 
L 774.993531 102.713366 
L 775.213935 102.436115 
L 776.977171 100.079479 
L 777.142474 99.841835 
L 777.362878 99.623995 
L 777.528182 99.386351 
L 777.913889 98.812045 
L 781.523011 93.445252 
L 781.798517 92.969964 
L 782.129124 92.316443 
L 782.349528 91.900566 
L 783.038292 90.157844 
L 783.561752 88.316103 
L 783.782157 86.969454 
L 783.94746 85.127714 
L 784.030112 79.345044 
L 784.333168 20.389541 
L 784.44337 24.370077 
L 784.691325 52.23383 
L 785.104583 94.197791 
L 785.407639 104.792751 
L 785.710695 108.753483 
L 786.041302 110.377383 
L 786.399459 111.110119 
L 786.564762 111.189334 
L 786.730066 111.248745 
L 786.922919 111.288352 
L 787.088223 111.288352 
L 787.363728 111.209137 
L 787.529032 111.129923 
L 787.639234 111.030904 
L 788.327998 110.416991 
L 788.768806 109.961507 
L 789.044312 109.664452 
L 789.319817 109.327789 
L 789.622873 108.991127 
L 790.394289 108.060355 
L 790.532042 107.98114 
L 790.779997 107.703889 
L 791.46876 106.891939 
L 791.578963 106.73351 
L 791.799367 106.436455 
L 793.479951 104.198641 
L 793.590153 104.099622 
L 794.334018 103.208458 
L 794.581973 102.911403 
L 795.215635 102.178667 
L 795.380939 101.941023 
L 796.235006 100.871625 
L 796.317657 100.772607 
L 796.841118 100.198301 
L 796.923769 100.13889 
L 797.254376 99.683406 
L 798.191095 98.495186 
L 798.301297 98.396168 
L 799.072712 97.465396 
L 799.293117 97.207948 
L 799.568622 96.871286 
L 801.359408 94.118577 
L 801.772666 93.465056 
L 801.882869 93.366037 
L 802.268576 92.633302 
L 802.847138 91.643119 
L 802.95734 91.445082 
L 803.398149 90.633132 
L 804.197115 88.019049 
L 804.47262 86.117897 
L 804.582823 84.07812 
L 804.665474 74.810006 
L 804.96853 19.874646 
L 804.996081 20.33013 
L 805.106283 27.083179 
L 805.491991 74.909024 
L 805.822597 99.346743 
L 806.125654 107.248405 
L 806.42871 110.159543 
L 806.731766 111.327959 
L 807.227676 111.862658 
L 808.109293 111.783443 
L 808.274596 111.704229 
L 808.4399 111.60521 
L 808.880709 111.189334 
L 809.156214 110.832868 
L 809.43172 110.516009 
L 809.817427 110.139739 
L 810.010281 109.902096 
L 810.258236 109.585237 
L 810.340888 109.506022 
L 811.305157 108.278195 
L 811.387809 108.198981 
L 813.151044 105.842345 
L 813.398999 105.54529 
L 814.859178 103.624335 
L 815.024481 103.406494 
L 815.327538 103.010421 
L 815.410189 102.931206 
L 816.154054 102.020238 
L 816.209155 101.980631 
L 816.42956 101.663772 
L 817.063222 100.911233 
L 817.145874 100.832018 
L 817.476481 100.376534 
L 821.333558 94.653275 
L 821.664164 94.019558 
L 822.104973 93.207608 
L 822.573332 92.197621 
L 823.124343 90.791561 
L 823.565152 89.345894 
L 823.923309 88.038852 
L 824.253916 85.642609 
L 824.336568 84.196942 
L 824.419219 75.681367 
L 824.722275 20.270719 
L 824.749826 20.845025 
L 824.887579 30.905286 
L 825.631444 101.742987 
L 825.9345 108.119766 
L 826.265106 110.694242 
L 826.568162 111.525996 
L 826.898769 111.823051 
L 827.752836 111.724032 
L 828.110993 111.38737 
L 828.606903 110.931886 
L 828.827308 110.714046 
L 829.185465 110.337776 
L 829.571172 109.76347 
L 829.736476 109.664452 
L 830.342588 109.129753 
L 830.618093 108.79309 
L 831.086453 108.297999 
L 831.196655 108.198981 
L 831.885419 107.367227 
L 831.995621 107.327619 
L 832.216025 107.030564 
L 832.601733 106.456258 
L 832.822137 106.179007 
L 833.042542 105.862148 
L 833.262946 105.584897 
L 834.778227 103.584727 
L 834.860878 103.485709 
L 836.734316 100.970644 
L 836.899619 100.733 
L 839.599573 96.673249 
L 840.343438 95.3266 
L 840.508741 95.088956 
L 841.169954 93.92054 
L 841.307707 93.722503 
L 841.913819 92.316443 
L 843.263796 89.167661 
L 843.92501 86.553577 
L 844.062762 84.196942 
L 844.145414 74.988239 
L 844.44847 19.795431 
L 844.476021 20.33013 
L 844.613773 30.073532 
L 845.385189 102.772777 
L 845.688245 108.713876 
L 845.991301 110.813064 
L 846.294357 111.783443 
L 846.652514 112.139909 
L 847.231076 112.080498 
L 847.341278 112.021087 
L 847.368828 112.040891 
L 849.793277 110.179347 
L 850.9504 108.694072 
L 851.198355 108.416821 
L 851.418759 108.119766 
L 853.42995 105.38686 
L 853.512601 105.327449 
L 853.870758 104.812554 
L 854.697275 103.802567 
L 854.94523 103.505513 
L 855.93705 102.257882 
L 856.185005 101.960827 
L 856.763566 101.307306 
L 857.094173 100.95084 
L 858.168644 99.564584 
L 858.251296 99.465565 
L 858.416599 99.227921 
L 858.747206 98.772437 
L 859.298217 98.13872 
L 859.325768 98.158524 
L 859.353318 98.099113 
L 862.659384 93.524467 
L 862.824687 93.286823 
L 863.375699 92.356051 
L 864.339968 90.791561 
L 864.587923 90.29647 
L 865.001181 89.524127 
L 865.386889 88.434925 
L 866.185855 85.820842 
L 866.46136 83.662243 
L 866.544012 79.958958 
L 866.681765 49.243477 
L 866.874618 20.468756 
L 866.902169 20.528167 
L 867.012371 26.528677 
L 867.315427 63.323881 
L 867.673584 96.257372 
L 867.976641 106.060185 
L 868.307247 109.862488 
L 868.637854 111.288352 
L 869.023561 111.882462 
L 869.491921 112.100302 
L 869.684775 112.001284 
L 870.759246 111.129923 
L 871.007201 110.832868 
L 871.530662 110.337776 
L 872.109223 109.684255 
L 872.412279 109.347593 
L 872.742886 108.872305 
L 872.990841 108.57525 
L 873.376549 107.98114 
L 873.679605 107.644478 
L 874.726526 106.317633 
L 875.084683 105.98097 
L 875.305087 105.664112 
L 875.883649 105.010591 
L 875.9663 104.911573 
L 876.296907 104.555107 
L 878.115243 102.119256 
L 878.308097 101.861809 
L 879.685625 100.059675 
L 880.043782 99.683406 
L 880.346838 99.287332 
L 880.594793 98.990278 
L 881.834568 97.346574 
L 881.862118 97.366377 
L 881.889669 97.32677 
L 882.330478 96.633642 
L 883.074342 95.722673 
L 883.156994 95.663262 
L 883.404949 95.386011 
L 883.708005 95.049349 
L 884.011061 94.673079 
L 884.562072 98.198131 
L 885.223285 100.178497 
L 886.876319 103.485709 
L 886.95897 103.54512 
L 887.151824 103.76296 
L 887.42733 104.040211 
L 887.647734 104.35707 
L 888.198745 104.970984 
L 888.308947 105.030395 
L 888.584453 105.38686 
L 888.722205 105.485879 
L 889.080363 105.862148 
L 889.383419 106.119596 
L 893.185395 108.753483 
L 893.240496 108.753483 
L 893.268046 108.79309 
L 894.122113 109.288182 
L 894.287417 109.3872 
L 894.783327 109.624844 
L 894.94863 109.723863 
L 895.224135 109.803077 
L 895.334338 109.902096 
L 895.775147 110.100132 
L 895.912899 110.19915 
L 896.46391 110.476402 
L 896.739416 110.555616 
L 896.904719 110.615027 
L 897.152674 110.714046 
L 897.621033 110.931886 
L 897.758786 111.030904 
L 897.95164 111.050708 
L 898.392449 111.149726 
L 898.667954 111.228941 
L 898.97101 111.327959 
L 899.329168 111.466585 
L 900.045482 111.5458 
L 900.265886 111.704229 
L 900.734246 111.803247 
L 901.147504 111.98148 
L 901.505661 112.080498 
L 901.726066 112.219124 
L 901.891369 112.19932 
L 902.084223 112.298339 
L 902.277077 112.278535 
L 902.44238 112.337946 
L 902.635234 112.436964 
L 902.883189 112.496375 
L 903.406649 112.595394 
L 903.544402 112.635001 
L 903.654604 112.654805 
L 904.095413 112.852841 
L 904.178065 112.833038 
L 904.205615 112.872645 
L 904.42602 112.932056 
L 904.45357 112.912252 
L 904.508671 112.991467 
L 904.784177 113.070682 
L 904.811727 113.031074 
L 904.866828 113.090485 
L 905.197435 113.229111 
L 905.335188 113.248914 
L 905.583143 113.328129 
L 905.720895 113.347933 
L 905.96885 113.407344 
L 906.43721 113.506362 
L 906.712715 113.585577 
L 907.153524 113.664791 
L 907.236176 113.744006 
L 907.291277 113.704399 
L 907.45658 113.704399 
L 907.594333 113.783613 
L 907.759636 113.704399 
L 908.090243 113.823221 
L 908.227996 113.843024 
L 908.4484 113.942043 
L 908.586153 113.942043 
L 908.723905 113.961846 
L 908.861658 114.060865 
L 908.889209 114.041061 
L 909.605523 114.140079 
L 909.881029 114.219294 
L 910.45959 114.318312 
L 910.679995 114.35792 
L 911.065702 114.456938 
L 911.368758 114.555956 
L 912.085073 114.654975 
L 912.167724 114.654975 
L 912.195275 114.615367 
L 912.691185 114.714386 
L 913.049342 114.872815 
L 913.214645 114.872815 
L 913.683005 114.971833 
L 913.848308 115.051048 
L 914.289117 115.150066 
L 914.45442 115.150066 
L 914.895229 115.249084 
L 915.143184 115.308495 
L 915.639094 115.407514 
L 915.831948 115.427317 
L 915.9697 115.447121 
L 916.630914 115.546139 
L 916.878869 115.60555 
L 917.92579 115.684765 
L 918.035992 115.724372 
L 918.063542 115.704569 
L 918.256396 115.724372 
L 918.917609 115.823391 
L 919.165564 115.902605 
L 919.275767 115.922409 
L 919.413519 115.902605 
L 920.047182 116.001624 
L 920.240036 116.021427 
L 921.039002 116.100642 
L 921.176755 116.160053 
L 921.342058 116.140249 
L 921.645114 116.239268 
L 921.975721 116.338286 
L 922.168574 116.377893 
L 922.278777 116.397697 
L 922.499181 116.437304 
L 922.884889 116.536322 
L 923.050192 116.536322 
L 923.711405 116.635341 
L 923.904259 116.674948 
L 924.014461 116.655144 
L 924.207315 116.694752 
L 924.345068 116.714555 
L 924.510371 116.754163 
L 924.537922 116.714555 
L 924.620573 116.773966 
L 924.813427 116.754163 
L 924.978731 116.813574 
L 925.144034 116.813574 
L 925.254236 116.833377 
L 925.281787 116.79377 
L 925.529742 116.892788 
L 925.777697 116.952199 
L 926.769516 117.051218 
L 927.017471 117.110629 
L 927.182775 117.110629 
L 927.816437 117.209647 
L 928.119493 117.308665 
L 929.414369 117.38788 
L 929.579673 117.467095 
L 930.378639 117.566113 
L 930.571492 117.585917 
L 930.764346 117.566113 
L 931.094953 117.684935 
L 932.086773 117.783953 
L 932.334728 117.863168 
L 932.610233 117.76415 
L 932.858188 117.823561 
L 932.96839 117.863168 
L 937.211175 117.962186 
L 937.486681 118.061204 
L 937.707085 117.98199 
L 937.844838 118.061204 
L 937.872388 118.041401 
L 937.982591 118.021597 
L 938.147894 118.001793 
L 938.395849 118.100812 
L 938.561152 118.041401 
L 938.698905 118.081008 
L 938.864208 118.061204 
L 939.084613 118.100812 
L 939.525422 118.19983 
L 939.745826 118.239437 
L 940.627444 118.338456 
L 940.792747 118.397867 
L 940.902949 118.41767 
L 941.095803 118.437474 
L 941.261106 118.378063 
L 941.674364 118.556296 
L 941.784567 118.556296 
L 943.162094 118.635511 
L 943.299847 118.694922 
L 943.520251 118.655314 
L 943.713105 118.675118 
L 944.732476 118.774136 
L 944.92533 118.79394 
L 945.145734 118.734529 
L 945.283487 118.813744 
L 947.487531 118.912762 
L 947.625284 118.932566 
L 949.113013 119.031584 
L 949.333418 119.071191 
L 950.43544 119.150406 
L 950.628294 119.249424 
L 950.793597 119.190013 
L 951.041552 119.269228 
L 951.317057 119.190013 
L 951.482361 119.249424 
L 952.97009 119.348443 
L 953.080293 119.308835 
L 954.154764 119.407854 
L 954.292517 119.38805 
L 957.626134 119.487068 
L 957.846538 119.526675 
L 958.810807 119.60589 
L 958.976111 119.665301 
L 959.168964 119.625694 
L 959.416919 119.704908 
L 959.609773 119.665301 
L 959.830178 119.724712 
L 960.050582 119.685105 
L 962.998491 119.784123 
L 963.108693 119.764319 
L 963.301547 119.724712 
L 963.384199 119.724712 
L 963.411749 119.685105 
L 963.880109 119.764319 
L 963.990311 119.784123 
L 964.155614 119.724712 
L 967.075973 119.82373 
L 967.213725 119.82373 
L 967.379029 119.82373 
L 967.599433 119.863338 
L 968.508601 119.962356 
L 968.673904 119.962356 
L 969.610623 120.021767 
L 969.638174 120.081178 
L 969.720825 120.021767 
L 978.95026 120.120785 
L 979.060462 120.100982 
L 979.308417 120.041571 
L 979.528822 120.081178 
L 979.666574 120.100982 
L 979.804327 120.081178 
L 981.402259 120.180196 
L 981.540012 120.160393 
L 981.732866 120.140589 
L 981.898169 120.180196 
L 982.063472 120.120785 
L 982.173674 120.140589 
L 982.366528 120.120785 
L 982.669584 120.021767 
L 982.834888 120.021767 
L 983.000191 120.081178 
L 983.165494 120.081178 
L 983.413449 120.140589 
L 984.873628 120.041571 
L 985.066482 120.001963 
L 985.314437 120.061374 
L 985.45219 120.021767 
L 995.838748 119.922749 
L 995.976501 119.883141 
L 997.491781 119.98216 
L 997.601983 119.962356 
L 997.767286 119.962356 
L 1002.478431 119.883141 
L 1002.616183 119.863338 
L 1002.781487 119.863338 
L 1004.43452 119.784123 
L 1004.572272 119.724712 
L 1004.875329 119.82373 
L 1004.985531 119.784123 
L 1005.013081 119.803927 
L 1009.310967 119.704908 
L 1009.503821 119.645497 
L 1009.641574 119.685105 
L 1009.834428 119.665301 
L 1010.93645 119.566283 
L 1011.019101 119.546479 
L 1011.046652 119.586086 
L 1011.211955 119.586086 
L 1011.404809 119.487068 
L 1011.625214 119.447461 
L 1011.818067 119.467264 
L 1017.603683 119.368246 
L 1017.796537 119.289032 
L 1017.906739 119.348443 
L 1017.93429 119.328639 
L 1018.843458 119.229621 
L 1019.201615 119.090995 
L 1019.422019 119.130602 
L 1019.587323 119.090995 
L 1019.697525 119.130602 
L 1019.725076 119.110799 
L 1023.96786 119.190013 
L 1024.105613 119.229621 
L 1024.326018 119.150406 
L 1024.46377 119.229621 
L 1024.601523 119.190013 
L 1027.025972 119.289032 
L 1027.163724 119.269228 
L 1027.273926 119.249424 
L 1027.301477 119.289032 
L 1033.803407 119.368246 
L 1033.94116 119.407854 
L 1034.106463 119.348443 
L 1034.326868 119.38805 
L 1034.519721 119.289032 
L 1036.806417 119.38805 
L 1036.999271 119.407854 
L 1037.219675 119.368246 
L 1037.412529 119.38805 
L 1037.660484 119.328639 
L 1040.387989 119.427657 
L 1040.608393 119.467264 
L 1040.828798 119.427657 
L 1041.104303 119.526675 
L 1041.242056 119.467264 
L 1041.379809 119.526675 
L 1041.517561 119.546479 
L 1041.627764 119.546479 
L 1041.737966 119.526675 
L 1041.903269 119.526675 
L 1050.609243 119.586086 
L 1050.746996 119.625694 
L 1050.912299 119.625694 
L 1051.132704 119.665301 
L 1051.187805 119.665301 
L 1051.215355 119.704908 
L 1051.353108 119.744516 
L 1055.788747 119.645497 
L 1055.898949 119.60589 
L 1055.981601 119.665301 
L 1056.036702 119.625694 
L 1056.174454 119.60589 
L 1059.811127 119.704908 
L 1060.003981 119.744516 
L 1060.196835 119.724712 
L 1063.117193 119.665301 
L 1063.254946 119.60589 
L 1064.46717 119.506872 
L 1064.604923 119.506872 
L 1064.825328 119.566283 
L 1065.073282 119.506872 
L 1065.651844 119.407854 
L 1065.762046 119.407854 
L 1066.671214 119.308835 
L 1066.891619 119.249424 
L 1066.97427 119.269228 
L 1067.001821 119.249424 
L 1069.040562 119.348443 
L 1069.150764 119.328639 
L 1069.371168 119.289032 
L 1076.864918 119.190013 
L 1076.892469 119.150406 
L 1076.975121 119.209817 
L 1080.143434 119.110799 
L 1080.363838 119.071191 
L 1080.804647 118.972173 
L 1080.9424 118.991977 
L 1084.744376 118.892958 
L 1084.882129 118.892958 
L 1085.130084 118.972173 
L 1085.350488 118.932566 
L 1090.226936 118.853351 
L 1090.392239 118.79394 
L 1090.585093 118.833547 
L 1090.777947 118.813744 
L 1094.111563 118.714725 
L 1094.276867 118.694922 
L 1094.44217 118.694922 
L 1094.579923 118.714725 
L 1102.43183 118.615707 
L 1102.624683 118.5761 
L 1102.762436 118.5761 
L 1102.872638 118.5761 
L 1103.010391 118.655314 
L 1103.037942 118.635511 
L 1103.230796 118.615707 
L 1105.875649 118.694922 
L 1106.013401 118.774136 
L 1106.040952 118.754333 
L 1110.366388 118.655314 
L 1110.531692 118.635511 
L 1110.669444 118.675118 
L 1114.278567 118.774136 
L 1114.416319 118.79394 
L 1114.554072 118.714725 
L 1114.691825 118.79394 
L 1117.887689 118.694922 
L 1118.052992 118.694922 
L 1118.218295 118.694922 
L 1119.678475 118.595903 
L 1119.788677 118.615707 
L 1119.898879 118.615707 
L 1120.036632 118.595903 
L 1123.700855 118.694922 
L 1123.811057 118.675118 
L 1123.94881 118.694922 
L 1126.593663 118.615707 
L 1126.731416 118.536492 
L 1126.758966 118.556296 
L 1126.979371 118.516689 
L 1127.365078 118.41767 
L 1127.585483 118.378063 
L 1127.778337 118.397867 
L 1133.646604 118.496885 
L 1133.811907 118.496885 
L 1136.95267 118.397867 
L 1136.980221 118.358259 
L 1137.062872 118.41767 
L 1137.338378 118.338456 
L 1137.503681 118.358259 
L 1137.724085 118.318652 
L 1140.038332 118.219634 
L 1140.231186 118.160223 
L 1140.313837 118.180026 
L 1140.341388 118.160223 
L 1143.013791 118.061204 
L 1143.234196 118.001793 
L 1143.509701 118.081008 
L 1143.730106 118.041401 
L 1144.170914 117.942382 
L 1144.44642 117.863168 
L 1144.584173 117.863168 
L 1144.749476 117.843364 
L 1144.94233 117.882971 
L 1145.190285 117.823561 
L 1151.637114 117.902775 
L 1151.774866 117.942382 
L 1154.006461 118.041401 
L 1154.144214 118.021597 
L 1159.158414 118.120615 
L 1159.406369 118.180026 
L 1161.803267 118.259241 
L 1161.996121 118.358259 
L 1162.216525 118.318652 
L 1166.321557 118.259241 
L 1166.45931 118.19983 
L 1166.707265 118.279045 
L 1166.872568 118.219634 
L 1179.43562 118.318652 
L 1179.600923 118.318652 
L 1181.887619 118.239437 
L 1182.025372 118.219634 
L 1182.245776 118.160223 
L 1182.43863 118.180026 
L 1185.138584 118.081008 
L 1185.276337 118.081008 
L 1185.386539 118.120615 
L 1185.414089 118.100812 
L 1185.524291 118.061204 
L 1187.177325 118.160223 
L 1187.315077 118.19983 
L 1189.711975 118.298848 
L 1189.95993 118.378063 
L 1190.125234 118.358259 
L 1190.290537 118.358259 
L 1190.483391 118.318652 
L 1190.676245 118.358259 
L 1190.869098 118.338456 
L 1191.006851 118.318652 
L 1191.668064 118.41767 
L 1191.778267 118.397867 
L 1191.97112 118.358259 
L 1192.108873 118.338456 
L 1192.274176 118.338456 
L 1192.411929 118.378063 
L 1192.43948 118.338456 
L 1194.588423 118.259241 
L 1194.726176 118.219634 
L 1194.919029 118.239437 
L 1199.630174 118.160223 
L 1199.823027 118.061204 
L 1200.015881 118.081008 
L 1201.145454 118.001793 
L 1201.310757 117.942382 
L 1202.219925 117.843364 
L 1202.412779 117.823561 
L 1202.550532 117.823561 
L 1202.770936 117.783953 
L 1205.773946 117.882971 
L 1205.9668 117.902775 
L 1206.187205 117.863168 
L 1206.655564 117.962186 
L 1206.848418 117.98199 
L 1207.867788 117.882971 
L 1208.005541 117.902775 
L 1210.512641 117.803757 
L 1210.677945 117.803757 
L 1211.476911 117.704739 
L 1211.697315 117.645328 
L 1211.835068 117.665131 
L 1211.94527 117.625524 
L 1211.97282 117.645328 
L 1212.193225 117.60572 
L 1212.96464 117.506702 
L 1213.129944 117.506702 
L 1213.295247 117.526506 
L 1213.405449 117.566113 
L 1218.915559 117.467095 
L 1219.163514 117.38788 
L 1219.328818 117.38788 
L 1220.568592 117.288862 
L 1220.733896 117.269058 
L 1220.899199 117.288862 
L 1221.092053 117.189843 
L 1221.312457 117.229451 
L 1221.477761 117.17004 
L 1221.97367 117.090825 
L 1222.111423 117.071021 
L 1223.158344 116.991807 
L 1223.296097 116.952199 
L 1227.125624 116.853181 
L 1227.235826 116.872985 
L 1227.401129 116.892788 
L 1227.566432 116.892788 
L 1233.875509 116.991807 
L 1234.040812 116.991807 
L 1234.206115 116.991807 
L 1234.42652 117.031414 
L 1234.591823 117.031414 
L 1238.586653 117.130432 
L 1238.751956 117.150236 
L 1239.082563 117.031414 
L 1239.220315 117.051218 
L 1242.278427 117.150236 
L 1242.44373 117.150236 
L 1243.380449 117.209647 
L 1243.490651 117.269058 
L 1243.518201 117.249254 
L 1245.116133 117.328469 
L 1245.198785 117.368076 
L 1245.226336 117.328469 
L 1249.496671 117.229451 
L 1249.634424 117.189843 
L 1250.598693 117.288862 
L 1250.819097 117.328469 
L 1252.720085 117.427487 
L 1252.912939 117.467095 
L 1253.078243 117.407684 
L 1253.353748 117.328469 
L 1254.373118 117.407684 
L 1254.510871 117.427487 
L 1256.604713 117.506702 
L 1256.714915 117.526506 
L 1256.852668 117.486898 
L 1257.899589 117.38788 
L 1258.037342 117.407684 
L 1258.147544 117.407684 
L 1258.257746 117.328469 
L 1258.285297 117.348273 
L 1258.505701 117.38788 
L 1258.726106 117.348273 
L 1262.142374 117.447291 
L 1262.335228 117.467095 
L 1265.393339 117.38788 
L 1265.475991 117.368076 
L 1265.503541 117.38788 
L 1267.404529 117.288862 
L 1267.514731 117.288862 
L 1267.680035 117.38788 
L 1267.845338 117.328469 
L 1268.782057 117.229451 
L 1268.94736 117.229451 
L 1271.564662 117.308665 
L 1271.647314 117.328469 
L 1271.674864 117.308665 
L 1273.93401 117.209647 
L 1274.071762 117.229451 
L 1280.298187 117.328469 
L 1280.518591 117.368076 
L 1281.896119 117.467095 
L 1282.061422 117.486898 
L 1282.281827 117.447291 
L 1291.786767 117.546309 
L 1291.95207 117.546309 
L 1292.089823 117.566113 
L 1292.255126 117.585917 
L 1292.475531 117.526506 
L 1292.613283 117.546309 
L 1293.96326 117.447291 
L 1294.156114 117.427487 
L 1296.112203 117.526506 
L 1296.277507 117.526506 
L 1301.043752 117.447291 
L 1301.153954 117.38788 
L 1301.181505 117.407684 
L 1304.404919 117.308665 
L 1304.597773 117.288862 
L 1306.278357 117.209647 
L 1306.416109 117.189843 
L 1306.553862 117.17004 
L 1307.628334 117.269058 
L 1307.821187 117.308665 
L 1307.93139 117.269058 
L 1307.95894 117.288862 
L 1308.757906 117.38788 
L 1308.95076 117.407684 
L 1317.491431 117.328469 
L 1317.601633 117.288862 
L 1317.629184 117.308665 
L 1323.277047 117.209647 
L 1323.44235 117.189843 
L 1323.745406 117.308665 
L 1323.910709 117.308665 
L 1324.076013 117.328469 
L 1324.241316 117.328469 
L 1324.46172 117.368076 
L 1328.897359 117.467095 
L 1329.007561 117.467095 
L 1334.187065 117.566113 
L 1334.324817 117.546309 
L 1334.490121 117.546309 
L 1340.826748 117.645328 
L 1340.992051 117.665131 
L 1341.074702 117.645328 
L 1341.102253 117.684935 
L 1341.377759 117.60572 
L 1341.625714 117.665131 
L 1341.846118 117.625524 
L 1345.345038 117.724542 
L 1345.45524 117.704739 
L 1345.620543 117.704739 
L 1345.785847 117.704739 
L 1357.054022 117.625524 
L 1357.164224 117.585917 
L 1357.191775 117.60572 
L 1357.384629 117.566113 
L 1357.605033 117.60572 
L 1359.506021 117.506702 
L 1359.616223 117.526506 
L 1359.753976 117.506702 
L 1364.382469 117.60572 
L 1364.547772 117.60572 
L 1364.740626 117.566113 
L 1364.93348 117.585917 
L 1365.153884 117.546309 
L 1368.294647 117.447291 
L 1368.45995 117.427487 
L 1368.707905 117.486898 
L 1369.837478 117.407684 
L 1369.892579 117.368076 
L 1369.94768 117.407684 
L 1372.069072 117.506702 
L 1372.206825 117.506702 
L 1372.372128 117.506702 
L 1373.667004 117.585917 
L 1373.804757 117.60572 
L 1373.94251 117.546309 
L 1374.080263 117.625524 
L 1374.245566 117.566113 
L 1374.410869 117.585917 
L 1374.658824 117.526506 
L 1379.204665 117.427487 
L 1379.342418 117.447291 
L 1380.44444 117.348273 
L 1380.554642 117.328469 
L 1380.582193 117.368076 
L 1381.188305 117.467095 
L 1381.353608 117.467095 
L 1385.95455 117.368076 
L 1386.064752 117.368076 
L 1386.202505 117.407684 
L 1386.45046 117.348273 
L 1397.112523 117.447291 
L 1397.195175 117.447291 
L 1397.222725 117.407684 
L 1405.212385 117.308665 
L 1405.295037 117.288862 
L 1405.322587 117.328469 
L 1405.46034 117.348273 
L 1405.625644 117.288862 
L 1412.871438 117.189843 
L 1413.009191 117.130432 
L 1413.202045 117.17004 
L 1413.422449 117.110629 
L 1413.45 117.130432 
L 1413.45 117.130432 
" style="fill:none;stroke:#0000ff;stroke-linecap:square;"/>
   </g>
  </g>
 </g>
 <defs>
  <clipPath id="p3ae1ceb8d0">
   <rect height="104.9" width="1377.5" x="35.95" y="15.3"/>
  </clipPath>
 </defs>
</svg>
